<svg
    viewBox="0 0 511 511.99977"
    xmlns="http://www.w3.org/2000/svg"
    xmlns:xlink="http://www.w3.org/1999/xlink">
    <linearGradient 
        id="a"
        gradientUnits="userSpaceOnUse"
        x1=".5004846448"
        x2="512.4815406448"
        y1="255.9988936448"
        y2="255.9988936448">
        <stop
            offset="0"
            stop-color="#00f2fe"/>
        <stop
            offset=".0208"
            stop-color="#03effe"/>
        <stop
            offset=".2931"
            stop-color="#24d2fe"/>
        <stop
            offset=".5538"
            stop-color="#3cbdfe"/>
        <stop
            offset=".7956"
            stop-color="#4ab0fe"/>
        <stop
            offset="1"
            stop-color="#4facfe"/>
        </linearGradient>
            <path
                d="m273.8125 76.671875v-56.675781c0-6.089844-2.773438-11.851563-7.539062-15.644532-4.765626-3.792968-11.003907-5.207031-16.9375-3.84375l-112.726563 25.910157c-20.941406 4.453125-36.113281 23.171875-36.113281 44.601562v180.757813c-9.097656-4.335938-19.269532-6.769532-30-6.769532-38.59375 0-69.996094 31.402344-69.996094 70 0 38.59375 31.402344 69.996094 69.996094 69.996094 38.15625 0 69.257812-30.691406 69.964844-68.679687.007812-.21875.035156-.4375.035156-.660157v-168.476562l93.910156-21.652344c22.847656-4.953125 39.40625-25.472656 39.40625-48.863281zm-203.3125 268.332031c-16.542969 0-30-13.457031-30-29.996094 0-16.542968 13.457031-30 30-30 16.539062 0 29.996094 13.457032 29.996094 30 0 16.539063-13.457032 29.996094-29.996094 29.996094zm163.316406-268.332031c0 4.691406-3.332031 8.804687-7.921875 9.78125-.109375.019531-.222656.046875-.332031.074219l-85.066406 19.613281v-35.121094c0-2.640625 1.875-4.945312 4.464844-5.480469.140624-.03125.285156-.0625.425781-.09375l88.429687-20.328124zm261.855469 71.589844c-10.679687-8.699219-24.542969-12.085938-38.027344-9.292969-.269531.054688-.53125.113281-.792969.179688l-169.410156 42.308593c-20.828125 4.535157-35.898437 23.195313-35.898437 44.554688v152.785156c-9.109375-4.351563-19.300781-6.792969-30.050781-6.792969-38.597657 0-69.996094 31.402344-69.996094 70 0 38.59375 31.398437 69.996094 69.996094 69.996094 38.105468 0 69.175781-30.609375 69.960937-68.53125.054687-.597656.089844-1.199219.089844-1.808594v-138.664062l180.9375-43.960938v67.296875c-9.347657-4.640625-19.871094-7.261719-30.996094-7.261719-38.597656 0-70 31.402344-70 69.996094 0 38.597656 31.402344 70 70 70 11.042969 0 20-8.957031 20-20 0-11.046875-8.957031-20-20-20-16.542969 0-30-13.457031-30-30 0-16.539062 13.457031-29.996094 30-29.996094 16.539063 0 29.996094 13.457032 29.996094 29.996094 0 7.707032 4.367187 14.382813 10.753906 17.722656 3 1.796876 6.496094 2.847657 10.246094 2.847657 11.046875 0 20-8.953125 20-19.996094v-206.023437c0-13.773438-6.125-26.660157-16.808594-35.355469zm-274.179687 323.738281c-16.539063 0-30-13.457031-30-30 0-16.539062 13.460937-29.996094 30-29.996094 16.542968 0 30 13.457032 30 29.996094 0 16.542969-13.457032 30-30 30zm70.050781-245.992188c0-2.640624 1.878906-4.945312 4.464843-5.480468.265626-.054688.527344-.113282.792969-.179688l169.210938-42.257812c2.132812-.34375 3.667969.585937 4.40625 1.1875.773437.625 2.0625 2.027344 2.0625 4.339844v34.253906l-180.9375 43.960937zm0 0"
                fill="url(#a)"/>
</svg>